<svg width="161" height="45" viewBox="0 0 161 45" fill="none" xmlns="http://www.w3.org/2000/svg">
<rect width="45" height="45" rx="10" fill="#7C79FF"/>
<path d="M66.5284 13.0909H68.8182V26.608C68.8182 27.8144 68.5966 28.8393 68.1534 29.6825C67.7102 30.5258 67.0855 31.166 66.2791 31.603C65.4728 32.04 64.5218 32.2585 63.4261 32.2585C62.392 32.2585 61.4718 32.0708 60.6655 31.6953C59.8591 31.3137 59.2251 30.772 58.7635 30.0703C58.3018 29.3686 58.071 28.5346 58.071 27.5682H60.3239C60.3239 28.1037 60.4562 28.5715 60.7209 28.9716C60.9917 29.3655 61.361 29.6733 61.8288 29.8949C62.2966 30.1165 62.8291 30.2273 63.4261 30.2273C64.0848 30.2273 64.6449 30.0888 65.1065 29.8118C65.5682 29.5348 65.919 29.1286 66.1591 28.593C66.4053 28.0514 66.5284 27.3897 66.5284 26.608V13.0909ZM81.2365 21.5298V23.5611H72.9638V21.5298H81.2365ZM82.4022 15.1222V13.0909H96.584V15.1222H90.638V32H88.3482V15.1222H82.4022ZM102.066 32.3324C101.167 32.3324 100.352 32.1631 99.6193 31.8246C98.8868 31.4799 98.3052 30.9844 97.8743 30.3381C97.4434 29.6856 97.228 28.8977 97.228 27.9744C97.228 27.1619 97.388 26.5033 97.7081 25.9986C98.0282 25.4877 98.456 25.0876 98.9915 24.7983C99.527 24.509 100.118 24.2936 100.764 24.152C101.417 24.0043 102.072 23.8873 102.731 23.8011C103.593 23.6903 104.291 23.6072 104.827 23.5518C105.368 23.4903 105.762 23.3887 106.009 23.2472C106.261 23.1056 106.387 22.8594 106.387 22.5085V22.4347C106.387 21.5237 106.138 20.8158 105.639 20.3111C105.147 19.8063 104.399 19.554 103.396 19.554C102.355 19.554 101.54 19.7817 100.949 20.2372C100.358 20.6927 99.9425 21.179 99.7024 21.696L97.6342 20.9574C98.0036 20.0956 98.496 19.4247 99.1115 18.9446C99.7332 18.4583 100.41 18.1198 101.143 17.929C101.881 17.732 102.608 17.6335 103.322 17.6335C103.777 17.6335 104.3 17.6889 104.891 17.7997C105.488 17.9044 106.064 18.1229 106.618 18.4553C107.178 18.7876 107.643 19.2893 108.012 19.9602C108.381 20.6312 108.566 21.5298 108.566 22.6562V32H106.387V30.0795H106.276C106.129 30.3873 105.882 30.7166 105.538 31.0675C105.193 31.4183 104.734 31.7169 104.162 31.9631C103.589 32.2093 102.891 32.3324 102.066 32.3324ZM102.398 30.375C103.26 30.375 103.987 30.2057 104.577 29.8672C105.174 29.5286 105.624 29.0916 105.925 28.5561C106.233 28.0206 106.387 27.4574 106.387 26.8665V24.8722C106.295 24.983 106.092 25.0845 105.778 25.1768C105.47 25.263 105.113 25.34 104.707 25.4077C104.307 25.4692 103.916 25.5246 103.534 25.5739C103.159 25.617 102.854 25.6539 102.62 25.6847C102.054 25.7585 101.524 25.8786 101.032 26.0447C100.546 26.2048 100.152 26.4479 99.8501 26.7741C99.5547 27.0942 99.407 27.5312 99.407 28.0852C99.407 28.8423 99.687 29.4148 100.247 29.8026C100.813 30.1842 101.531 30.375 102.398 30.375ZM112.543 32V17.8182H114.648V19.9602H114.796C115.055 19.2585 115.522 18.6892 116.199 18.2521C116.876 17.8151 117.64 17.5966 118.489 17.5966C118.649 17.5966 118.849 17.5997 119.089 17.6058C119.329 17.612 119.511 17.6212 119.634 17.6335V19.8494C119.56 19.831 119.391 19.8033 119.126 19.7663C118.868 19.7232 118.594 19.7017 118.305 19.7017C117.615 19.7017 117 19.8464 116.458 20.1357C115.922 20.4188 115.498 20.8127 115.184 21.3175C114.876 21.8161 114.722 22.3854 114.722 23.0256V32H112.543ZM127.51 37.6136C126.457 37.6136 125.552 37.4782 124.795 37.2074C124.038 36.9427 123.407 36.5919 122.903 36.1548C122.404 35.724 122.007 35.2623 121.711 34.7699L123.447 33.5511C123.644 33.8097 123.894 34.1051 124.195 34.4375C124.497 34.776 124.909 35.0684 125.432 35.3146C125.962 35.567 126.654 35.6932 127.51 35.6932C128.655 35.6932 129.599 35.4162 130.344 34.8622C131.089 34.3082 131.461 33.4403 131.461 32.2585V29.3778H131.277C131.117 29.6364 130.889 29.9564 130.594 30.3381C130.304 30.7135 129.886 31.049 129.338 31.3445C128.796 31.6338 128.064 31.7784 127.14 31.7784C125.996 31.7784 124.968 31.5076 124.057 30.9659C123.152 30.4242 122.435 29.6364 121.905 28.6023C121.382 27.5682 121.121 26.3125 121.121 24.8352C121.121 23.3826 121.376 22.1177 121.887 21.0405C122.398 19.9571 123.109 19.12 124.02 18.5291C124.931 17.9321 125.983 17.6335 127.177 17.6335C128.101 17.6335 128.833 17.7874 129.375 18.0952C129.923 18.3968 130.341 18.7415 130.631 19.1293C130.926 19.5109 131.154 19.8248 131.314 20.071H131.535V17.8182H133.64V32.4062C133.64 33.625 133.363 34.616 132.809 35.3793C132.262 36.1487 131.523 36.7119 130.594 37.0689C129.67 37.4321 128.642 37.6136 127.51 37.6136ZM127.436 29.821C128.31 29.821 129.049 29.621 129.652 29.2209C130.255 28.8208 130.714 28.2453 131.028 27.4943C131.341 26.7434 131.498 25.8447 131.498 24.7983C131.498 23.7765 131.345 22.8748 131.037 22.093C130.729 21.3113 130.273 20.6989 129.67 20.2557C129.067 19.8125 128.322 19.5909 127.436 19.5909C126.513 19.5909 125.743 19.8248 125.128 20.2926C124.518 20.7604 124.06 21.3883 123.752 22.1761C123.45 22.964 123.3 23.8381 123.3 24.7983C123.3 25.7831 123.453 26.6541 123.761 27.4112C124.075 28.1622 124.537 28.7531 125.146 29.1839C125.762 29.6087 126.525 29.821 127.436 29.821ZM143.575 32.2955C142.209 32.2955 141.03 31.9938 140.039 31.3906C139.054 30.7812 138.294 29.9318 137.758 28.8423C137.229 27.7467 136.964 26.4725 136.964 25.0199C136.964 23.5672 137.229 22.2869 137.758 21.179C138.294 20.0649 139.039 19.197 139.993 18.5753C140.953 17.9474 142.073 17.6335 143.354 17.6335C144.092 17.6335 144.822 17.7566 145.542 18.0028C146.262 18.2491 146.917 18.6491 147.508 19.2031C148.099 19.7509 148.57 20.4773 148.921 21.3821C149.272 22.2869 149.447 23.401 149.447 24.7244V25.6477H138.515V23.7642H147.231C147.231 22.964 147.071 22.25 146.751 21.6222C146.437 20.9943 145.988 20.4988 145.403 20.1357C144.825 19.7725 144.141 19.5909 143.354 19.5909C142.486 19.5909 141.735 19.8063 141.101 20.2372C140.473 20.6619 139.99 21.2159 139.651 21.8991C139.313 22.5824 139.143 23.3149 139.143 24.0966V25.3523C139.143 26.4233 139.328 27.3312 139.697 28.076C140.073 28.8146 140.593 29.3778 141.258 29.7656C141.922 30.1473 142.695 30.3381 143.575 30.3381C144.148 30.3381 144.665 30.258 145.126 30.098C145.594 29.9318 145.997 29.6856 146.336 29.3594C146.674 29.027 146.936 28.6146 147.121 28.1222L149.226 28.7131C149.004 29.4271 148.632 30.0549 148.108 30.5966C147.585 31.1321 146.939 31.5507 146.17 31.8523C145.4 32.1477 144.535 32.2955 143.575 32.2955ZM158.93 17.8182V19.6648H151.58V17.8182H158.93ZM153.722 14.4205H155.901V27.9375C155.901 28.553 155.99 29.0147 156.169 29.3224C156.354 29.6241 156.587 29.8272 156.871 29.9318C157.16 30.0303 157.465 30.0795 157.785 30.0795C158.025 30.0795 158.222 30.0672 158.376 30.0426C158.529 30.0118 158.653 29.9872 158.745 29.9688L159.188 31.9261C159.04 31.9815 158.834 32.0369 158.569 32.0923C158.305 32.1539 157.969 32.1847 157.563 32.1847C156.948 32.1847 156.344 32.0523 155.753 31.7876C155.169 31.523 154.682 31.1198 154.295 30.5781C153.913 30.0365 153.722 29.3532 153.722 28.5284V14.4205Z" fill="#7C79FF"/>
<path d="M22.5 8C14.4917 8 8 14.2678 8 22C8 29.7322 14.4917 36 22.5 36C30.5083 36 37 29.7322 37 22C37 14.2678 30.5083 8 22.5 8ZM22.5 32.3871C16.5544 32.3871 11.7419 27.7417 11.7419 22C11.7419 16.2594 16.5532 11.6129 22.5 11.6129C28.4456 11.6129 33.2581 16.2583 33.2581 22C33.2581 27.7406 28.4468 32.3871 22.5 32.3871ZM22.5 14.7742C18.3669 14.7742 15.0161 18.0094 15.0161 22C15.0161 25.9906 18.3669 29.2258 22.5 29.2258C26.6331 29.2258 29.9839 25.9906 29.9839 22C29.9839 18.0094 26.6331 14.7742 22.5 14.7742ZM22.5 25.6129C20.4367 25.6129 18.7581 23.9922 18.7581 22C18.7581 20.0078 20.4367 18.3871 22.5 18.3871C24.5633 18.3871 26.2419 20.0078 26.2419 22C26.2419 23.9922 24.5633 25.6129 22.5 25.6129Z" fill="white"/>
</svg>
